HIERARCHY
ROOT Hips
{
	OFFSET -0.001795 -0.223333 0.028219
	CHANNELS 6 Xposition Yposition Zposition Zrotation Yrotation Xrotation 
	JOINT LeftUpLeg
	{
		OFFSET 0.069520 -0.091406 -0.006815
		CHANNELS 3 Zrotation Yrotation Xrotation
		JOINT LeftLeg
		{
			OFFSET 0.034277 -0.375199 -0.004496
			CHANNELS 3 Zrotation Yrotation Xrotation
			JOINT LeftFoot
			{
				OFFSET -0.013596 -0.397961 -0.043693
				CHANNELS 3 Zrotation Yrotation Xrotation
				JOINT LeftToe
				{
					OFFSET 0.026358 -0.055791 0.119288
					CHANNELS 3 Zrotation Yrotation Xrotation
					End Site
					{
						OFFSET 0.000000 0.000000 0.000000
					}
				}
			}
		}
	}
	JOINT RightUpLeg
	{
		OFFSET -0.067670 -0.090522 -0.004320
		CHANNELS 3 Zrotation Yrotation Xrotation
		JOINT RightLeg
		{
			OFFSET -0.038290 -0.382569 -0.008850
			CHANNELS 3 Zrotation Yrotation Xrotation
			JOINT RightFoot
			{
				OFFSET 0.015774 -0.398415 -0.042312
				CHANNELS 3 Zrotation Yrotation Xrotation
				JOINT RightToe
				{
					OFFSET -0.025372 -0.048144 0.123348
					CHANNELS 3 Zrotation Yrotation Xrotation
					End Site
					{
						OFFSET 0.000000 0.000000 0.000000
					}
				}
			}
		}
	}
	JOINT Spine
	{
		OFFSET -0.002533 0.108963 -0.026696
		CHANNELS 3 Zrotation Yrotation Xrotation
		JOINT Spine1
		{
			OFFSET 0.005487 0.135180 0.001092
			CHANNELS 3 Zrotation Yrotation Xrotation
			JOINT Spine2
			{
				OFFSET 0.001457 0.052922 0.025425
				CHANNELS 3 Zrotation Yrotation Xrotation
				JOINT Neck
				{
					OFFSET -0.002778 0.213870 -0.042857
					CHANNELS 3 Zrotation Yrotation Xrotation
					JOINT Head
					{
						OFFSET 0.005152 0.064970 0.051349
						CHANNELS 3 Zrotation Yrotation Xrotation
						End Site
						{
							OFFSET 0.000000 0.000000 0.000000
						}
					}
				}
				JOINT LeftShoulder
				{
					OFFSET 0.078845 0.121749 -0.034090
					CHANNELS 3 Zrotation Yrotation Xrotation
					JOINT LeftArm
					{
						OFFSET 0.090977 0.030469 -0.008868
						CHANNELS 3 Zrotation Yrotation Xrotation
						JOINT LeftForeArm
						{
							OFFSET 0.259612 -0.012772 -0.027456
							CHANNELS 3 Zrotation Yrotation Xrotation
							JOINT LeftHand
							{
								OFFSET 0.249234 0.008986 -0.001171
								CHANNELS 3 Zrotation Yrotation Xrotation
								End Site
								{
									OFFSET 0.000000 0.000000 0.000000
								}
							}
						}
					}
				}
				JOINT RightShoulder
				{
					OFFSET -0.081759 0.118833 -0.038615
					CHANNELS 3 Zrotation Yrotation Xrotation
					JOINT RightArm
					{
						OFFSET -0.096012 0.032551 -0.009143
						CHANNELS 3 Zrotation Yrotation Xrotation
						JOINT RightForeArm
						{
							OFFSET -0.253742 -0.013329 -0.021401
							CHANNELS 3 Zrotation Yrotation Xrotation
							JOINT RightHand
							{
								OFFSET -0.255298 0.007772 -0.005559
								CHANNELS 3 Zrotation Yrotation Xrotation
								End Site
								{
									OFFSET 0.000000 0.000000 0.000000
								}
							}
						}
					}
				}
			}
		}
	}
}
MOTION
Frames: 7
Frame Time: 0.050000
0.000000 0.913969 0.000000 -2.026733 -3.778121 -4.321824 -2.819084 2.148265 17.173850 1.036289 -0.279951 3.858184 2.870721 3.137382 -8.853404 0.000000 0.000000 0.000000 -0.755211 2.598654 -25.154952 6.628943 -0.881384 31.170494 -9.324955 -22.732681 -10.769535 0.000000 0.000000 0.000000 4.032369 -0.836021 11.741316 -3.782114 1.486607 -22.284919 -3.387954 -0.408763 29.844814 10.105125 -4.097583 -30.973896 0.000000 0.000000 0.000000 -21.347045 -4.520860 2.353304 -45.610599 -9.148397 -4.887735 -6.918195 -37.966365 4.785597 0.000000 0.000000 0.000000 29.598262 -8.089318 -8.426270 53.306620 -17.127840 -14.729552 8.900719 24.792322 2.880638 0.000000 0.000000 0.000000 
-0.009376 0.903736 0.079144 -2.389522 -3.166096 -3.626693 -1.313703 2.574088 22.849240 1.508127 -0.261633 1.872535 2.006219 2.234943 -5.510399 0.000000 0.000000 0.000000 -0.940443 2.674968 -26.460974 5.582027 -0.624577 15.795789 -7.981570 -19.283738 -2.411234 0.000000 0.000000 0.000000 4.140373 -0.755501 10.242388 -1.834464 0.956168 -19.864962 -4.189761 -2.697220 26.791563 6.858253 -2.737181 -28.851599 0.000000 0.000000 0.000000 -19.120572 -2.431903 1.450909 -48.391241 -10.437647 -4.227369 -4.185977 -42.636680 4.712026 0.000000 0.000000 0.000000 27.791321 -8.402647 -9.032927 53.467413 -21.824618 -16.336405 7.951265 25.077640 2.545775 0.000000 0.000000 0.000000 
-0.020857 0.896327 0.163646 -2.459377 -1.491328 -1.098454 0.142061 2.333767 24.508337 3.159011 -0.579175 3.651080 1.578095 2.084755 -3.204242 0.000000 0.000000 0.000000 -1.152123 2.858698 -29.657257 5.932625 -0.742567 11.782261 -6.919013 -17.030898 -0.261268 0.000000 0.000000 0.000000 5.531524 -0.545782 5.844070 -1.158863 0.805510 -20.468720 -5.718281 -2.311772 29.946518 7.995311 -2.558843 -34.294796 0.000000 0.000000 0.000000 -18.957338 -3.563157 1.926255 -46.920738 -13.612242 -3.284636 -5.094364 -44.955225 5.365833 0.000000 0.000000 0.000000 26.584110 -10.972452 -9.884098 53.841950 -22.177050 -16.963278 7.206843 22.082793 2.169400 0.000000 0.000000 0.000000 
-0.034631 0.895695 0.251801 -3.563129 -2.195126 -1.079993 2.336566 1.891804 24.613274 2.611671 -1.025443 13.243641 0.425996 1.670843 1.800949 0.000000 0.000000 0.000000 1.241607 3.511860 -29.776680 5.965917 -0.767042 16.713378 -6.473551 -16.545462 4.523538 0.000000 0.000000 0.000000 9.238877 -0.607567 4.733679 -2.516473 1.167510 -19.558364 -6.347676 -1.821787 28.832401 6.287106 -1.621502 -34.133599 0.000000 0.000000 0.000000 -17.620209 -2.845156 1.394748 -48.329382 -12.414187 -3.533297 -8.730962 -46.064914 7.038667 0.000000 0.000000 0.000000 25.295789 -11.943084 -10.138828 54.598848 -23.362749 -17.644958 6.643049 21.074677 1.954295 0.000000 0.000000 0.000000 
-0.048925 0.900637 0.336624 -4.898283 -0.674997 -1.868638 6.027359 0.620149 17.435177 1.443724 -1.744736 32.326768 -1.645776 1.688612 11.404115 0.000000 0.000000 0.000000 3.833827 3.701048 -27.327720 5.347972 -0.741094 23.920071 -6.345370 -16.125337 4.140696 0.000000 0.000000 0.000000 10.670096 -0.745225 5.346809 -2.812415 1.287338 -21.186324 -4.954352 -1.425111 29.264538 5.753586 -1.172152 -33.917208 0.000000 0.000000 0.000000 -20.311880 -3.898345 1.615780 -48.644142 -11.324092 -4.007588 -9.348883 -46.447438 7.172666 0.000000 0.000000 0.000000 25.554957 -11.541486 -9.437302 55.349999 -21.530978 -17.222744 4.942801 19.420442 1.588888 0.000000 0.000000 0.000000 
-0.060831 0.912851 0.412461 -5.818349 -2.427829 -3.547596 8.066560 0.214205 9.113368 -2.945077 0.290086 47.834208 1.142588 7.190543 14.909653 0.000000 0.000000 0.000000 6.875347 3.393277 -20.946485 3.938015 -0.140712 25.574228 -5.005647 -12.870836 2.021163 0.000000 0.000000 0.000000 10.802593 -0.963437 7.494056 -2.017662 1.049071 -22.506749 -3.780942 2.335745 29.518912 7.267555 -1.445834 -34.194378 0.000000 0.000000 0.000000 -21.270159 -4.748621 1.272355 -50.064181 -9.794065 -4.533558 -10.383400 -42.820843 6.560532 0.000000 0.000000 0.000000 26.501501 -9.976249 -7.641630 54.615981 -17.242061 -15.331468 5.296040 20.301158 1.836304 0.000000 0.000000 0.000000 
-0.069431 0.929745 0.484226 -5.107011 -3.312926 -4.122561 7.238097 0.021430 -0.681627 -5.323305 2.223664 54.598695 5.484771 13.322916 11.883892 0.000000 0.000000 0.000000 7.547847 2.091441 -12.894990 2.202859 0.374858 21.378030 -3.765316 -9.498123 0.293001 0.000000 0.000000 0.000000 9.656516 -1.000549 8.597593 -2.119071 1.064753 -23.065246 -2.301040 5.032755 29.644656 7.810337 -1.462451 -33.498660 0.000000 0.000000 0.000000 -20.799359 -4.045938 0.292108 -51.775522 -8.689641 -4.995504 -11.925691 -39.101499 6.264702 0.000000 0.000000 0.000000 25.310441 -9.146769 -6.174347 56.053923 -11.696722 -13.457276 6.448886 22.913645 2.448071 0.000000 0.000000 0.000000 
